<svg xmlns="http://www.w3.org/2000/svg" xmlns:svgjs="http://svgjs.com/svgjs" xmlns:xlink="http://www.w3.org/1999/xlink" width="288" height="288"><svg xmlns="http://www.w3.org/2000/svg" width="288" height="288" viewBox="0 0 32 32"><path d="M16.5 1c-2.05 0-4.101.511-5.938 1.563a11.787 11.787 0 0 0-5.937 10c-.002.11 0 .469 0 .906v.406H3.5a.506.506 0 0 0-.094 0 .517.517 0 0 0-.406.5v4.313c0 .261.238.5.5.5h1.625c.624 0 1.173-.177 1.563-.563.155-.154.285-.33.375-.531h.78c.867 0 1.563-.697 1.563-1.563 0-.865-.696-1.593-1.562-1.593H7c-.085-.173-.176-.365-.313-.5a2 2 0 0 0-1.062-.532v-1.343c.069-3.774 2.129-7.232 5.438-9.126a10.953 10.953 0 0 1 10.874 0 10.783 10.783 0 0 1 5.438 9c.002.064 0 .23 0 .376-1.322.064-2.406 1.137-2.406 2.468v2.469c0 1.146.809 2.115 1.875 2.406-.078 4.427-3.425 7.465-7.813 8.5v-.312a.52.52 0 0 0-.5-.5h-2.218c-.4 0-.766.239-.97.531-.202.292-.28.64-.28 1.031 0 .39.078.77.28 1.063.204.292.57.531.97.531h2.218a.52.52 0 0 0 .5-.5v-.813c4.81-1.063 8.702-4.496 8.813-9.468A2.504 2.504 0 0 0 30 17.75v-2.469c0-1.065-.68-1.963-1.625-2.312 0-.138.004-.427 0-.563a11.797 11.797 0 0 0-5.938-9.844A11.933 11.933 0 0 0 16.5 1zm11 12.813c.847 0 1.5.636 1.5 1.468v2.469c0 .833-.653 1.5-1.5 1.5s-1.531-.667-1.531-1.5v-2.469c0-.832.684-1.469 1.531-1.469zM4 14.874h1.031a.5.5 0 0 0 .188 0c.392.015.641.111.781.25.152.151.25.422.25.875v1.063c0 .453-.098.692-.25.843-.152.151-.416.282-.875.282H4V14.875zm3.25 1.063h.594c.334 0 .562.269.562.593a.54.54 0 0 1-.562.563H7.25v-1.157zM10.344 19a.515.515 0 0 0-.344.5v7c0 .262.238.5.5.5H12v1.5c.011.37.524.606.813.375L15.063 27H20.5a.52.52 0 0 0 .5-.5v-7a.52.52 0 0 0-.5-.5h-10a.5.5 0 0 0-.156 0zM11 20h9v6h-5.094a.505.505 0 0 0-.312.094L13 27.406V26.5a.52.52 0 0 0-.5-.5H11v-6zm2.5 2.5a.5.5 0 1 0 0 1 .5.5 0 0 0 0-1zm2 0a.5.5 0 1 0 0 1 .5.5 0 0 0 0-1zm2 0a.5.5 0 1 0 0 1 .5.5 0 0 0 0-1zm-1.219 6.344c.022-.012.025 0 .032 0h1.718v.312a.509.509 0 0 0 0 .188V30h-1.718c-.013 0-.059-.029-.125-.125a.853.853 0 0 1-.125-.469c0-.204.058-.373.125-.468a.327.327 0 0 1 .093-.094z" color="#000" font-family="Sans" font-weight="400" overflow="visible" style="text-indent:0;text-align:start;line-height:normal;text-transform:none;block-progression:tb;marker:none;-inkscape-font-specification:Sans" fill="#e41749" class="color000 svgShape"/></svg></svg>